<?xml version="1.0" encoding="UTF-8" standalone="no"?>
<!DOCTYPE svg PUBLIC "-//W3C//DTD SVG 1.1//EN" "http://www.w3.org/Graphics/SVG/1.1/DTD/svg11.dtd">
<svg version="1.1" xmlns="http://www.w3.org/2000/svg" xmlns:xlink="http://www.w3.org/1999/xlink" preserveAspectRatio="xMidYMid meet" viewBox="0 0 600 450" width="600" height="450"><defs><path d="M17 62.33C2.47 88.72 -3.53 123.77 2.07 149.76C8.47 179.88 35.26 198.01 62.58 190.95C76.31 187.48 83.91 182.68 96.83 169.62C110.16 156.16 117.49 144.7 121.62 131.1C124.29 122.44 124.56 122.17 128.82 122.17C134.55 122.17 136.69 119.51 135.49 113.91C133.75 106.18 131.09 102.58 125.49 100.31C118.43 97.51 112.56 97.65 99.23 100.85C90.04 102.98 62.18 113.11 60.45 114.84C60.18 115.11 60.98 117.11 62.31 119.37C66.85 127.1 75.78 129.1 93.1 126.04C97.77 125.24 102.03 124.84 102.43 125.37C103.9 126.7 97.37 142.7 91.5 152.16C80.17 170.42 66.18 180.82 55.25 179.08C44.99 177.35 36.19 163.36 32.59 142.3C26.46 107.64 45.39 58.46 76.71 27.54C90.84 13.55 99.5 8.48 110.03 7.82C118.03 7.28 118.56 7.42 121.89 11.55C128.69 19.55 125.49 30.21 113.76 38.34C110.83 40.47 110.7 40.6 112.83 45.94C115.09 51.67 118.43 54.47 124.29 55.93C128.29 57 130.82 54.2 137.49 40.87C143.48 29.01 144.42 18.08 139.88 11.68C134.69 3.95 126.16 0.49 111.1 0.09C104.03 -0.18 95.37 0.22 92.04 0.75C64.31 5.95 34.73 30.21 17 62.33Z" id="b3aOUsBkrI"></path><path d="M146.81 136.17C140.15 158.29 138.82 169.49 142.02 174.55C144.15 177.75 152.68 182.15 156.54 182.15C157.61 182.15 160.14 176.55 162.68 168.42C172.94 136.7 184.93 117.77 201.33 107.38C201.72 107.12 203.67 105.83 207.19 103.51C208.79 106.15 209.68 107.62 209.86 107.91C215.85 118.04 225.32 124.97 228.92 122.04C233.18 118.57 234.11 114.44 234.51 99.51C234.65 91.12 234.91 80.59 235.18 76.19C235.45 68.33 235.45 68.19 231.58 67.79C224.78 66.99 221.85 68.73 214.66 77.79C200.66 95.65 187.6 108.84 184 108.84C182 108.84 187.6 95.78 194.93 83.12C195.39 82.32 197.7 78.32 201.86 71.13C200.1 69.69 199.12 68.89 198.93 68.73C195.46 65.93 182.53 60.86 178.67 60.86C176.54 60.86 174.54 63.79 169.47 74.46C161.61 91.25 154.15 111.64 146.81 136.17Z" id="cnvzqOGEs"></path><path d="M352.33 138.17C353 151.89 356.07 159.49 364.73 168.69C376.73 181.48 388.85 184.15 402.58 176.82C411.51 172.02 425.91 159.49 428.84 154.03C430.7 150.29 430.7 150.16 427.64 150.16C426.04 150.16 418.44 153.76 411.11 158.29C396.72 166.95 388.45 169.22 384.59 166.02C377.79 160.42 375.66 145.9 379.52 130.97C382.19 120.44 391.92 100.58 398.32 92.72C406.05 83.25 415.38 76.86 421.37 76.86C433.24 76.86 431.9 87.25 417.78 104.71C414.18 109.11 414.18 109.11 416.71 111.11C428.97 119.91 442.57 107.78 442.7 87.92C442.7 70.86 435.9 63.39 418.71 61.66C414.58 61.26 408.45 61.66 404.58 62.73C374.06 70.33 350.6 104.18 352.33 138.17Z" id="c3UBAVxRse"></path><path d="M456.83 109.64C450.3 122.97 447.63 133.23 447.5 145.5C447.36 154.56 447.9 157.22 451.1 163.76C460.69 183.35 483.62 187.88 504.01 174.28C511.47 169.22 523.73 157.22 526.13 152.56C530.67 143.76 526.27 144.03 515.6 153.23C497.08 169.22 486.15 174.15 478.42 170.02C474.82 168.02 472.02 160.82 472.02 153.23C472.02 152.8 472.02 150.67 472.02 146.83C477.86 144.51 481.1 143.22 481.75 142.96C511.34 131.1 534.66 105.51 534.66 84.99C534.66 76.06 532.93 72.46 526.53 67.26C520.67 62.6 510.14 61.13 502.41 63.93C484.28 70.73 468.16 86.85 456.83 109.64ZM484.15 130.7C479.49 133.37 475.35 135.37 475.09 134.97C474.15 134.03 480.68 118.71 485.48 110.71C490.81 101.91 501.48 91.65 509.61 87.65C517.2 83.92 517.87 84.05 516.94 89.38C514.8 102.98 500.14 121.37 484.15 130.7Z" id="c8U1xgNxG"></path><path d="M252.37 110.98C244.91 125.77 242.24 136.3 242.11 150.16C242.11 161.62 242.51 163.36 245.84 169.22C250.91 177.75 254.64 180.02 262.1 179.22C270.1 178.28 279.7 170.82 290.09 157.36C294.49 151.76 299.02 145.9 300.22 144.3C302.35 141.76 302.35 142.43 301.82 156.43C300.89 173.89 302.22 177.48 310.08 178.95C316.62 180.15 328.48 177.08 327.41 174.55C327.01 173.35 325.94 166.82 325.15 160.02C323.01 143.1 324.88 132.57 332.61 117.11C337.94 106.44 344.07 89.65 344.07 85.52C344.07 83.65 338.87 81.25 331.54 79.52C331.22 79.45 329.62 79.1 326.74 78.46C321.15 89.41 318.04 95.5 317.41 96.72C301.69 127.77 284.63 152.43 273.7 160.02C263.97 166.69 261.17 163.22 264.64 148.56C270.37 123.77 289.29 99.65 311.82 88.32C315.55 86.45 318.75 84.05 318.75 82.99C318.75 80.45 313.28 72.86 309.42 69.93C303.82 65.79 297.69 65.66 289.69 69.39C276.9 75.52 261.57 92.58 252.37 110.98Z" id="j1nxGHreDQ"></path><path d="M166.14 259.98C155.48 302.1 151.61 329.82 152.55 359.68C152.81 370.87 153.75 382.34 154.68 385.14C156.81 391.67 165.61 400.33 172.27 402.33C175.2 403.13 177.74 403.53 178.14 403.13C178.54 402.73 178.27 399.26 177.47 395.4C175.07 382.74 175.87 342.49 178.8 323.16C184.67 285.71 195.6 249.72 212.66 211.07C216.79 201.74 219.85 193.48 219.32 192.68C217.85 190.15 204.66 184.95 197.6 184.01C191.06 183.21 190.8 183.21 189.33 186.95C184.53 199.08 170.01 245.06 166.14 259.98Z" id="c1FBlfjM1N"></path><path d="M55.38 270.78C56.98 276.11 56.98 276.11 51.25 282.64C43.79 291.04 38.86 299.3 37.26 306.37C33.79 322.23 46.72 339.42 62.18 339.42C69.11 339.42 73.38 336.75 83.11 326.09C90.7 317.96 92.04 317.03 93.64 318.9C94.57 319.96 97.1 321.83 99.37 323.03C103.1 325.03 103.5 324.89 105.76 322.09C110.3 316.5 112.7 300.77 109.1 300.77C108.03 300.77 106.7 301.97 106.03 303.43C104.83 305.83 104.7 305.83 101.9 303.7C99.1 301.57 98.97 301.17 100.83 297.57C106.7 286.24 107.9 273.85 103.63 268.11C101.9 265.72 101.5 266.25 97.77 273.58C93.77 281.58 87.5 290.11 85.64 290.11C84.57 290.11 75.11 277.58 74.04 274.78C73.51 273.58 76.31 269.45 80.84 264.52C91.9 252.25 96.17 244.39 96.17 235.73C96.17 222.27 86.31 218.27 72.58 226.13C57.65 234.66 50.19 254.12 55.38 270.78ZM72.31 257.32C70.04 259.45 67.91 260.92 67.38 260.52C65.91 258.92 66.71 247.99 68.71 243.19C71.51 236.53 78.71 228.53 81.37 229.06C82.57 229.33 83.64 231.06 83.91 233.33C84.44 238.13 77.64 252.12 72.31 257.32ZM77.78 303.83C74.66 306.95 72.92 308.69 72.58 309.03C65.65 316.23 59.65 319.69 55.25 319.16C51.92 318.76 51.52 318.23 51.12 312.9C50.85 308.77 51.65 305.17 54.18 300.1C58.32 291.44 62.85 285.57 64.18 287.04C64.71 287.57 67.91 291.57 71.38 295.97C72.23 297.02 74.36 299.64 77.78 303.83Z" id="b49AUYhwr"></path><path d="M207.59 332.49C213.59 344.88 227.45 359.15 248.24 374.47C268.5 389.4 278.76 402.2 278.76 412.73C278.76 414.86 278.9 416.72 279.16 416.72C279.3 416.72 283.29 413.12 287.83 408.73C298.36 398.73 310.62 391.4 329.01 384.2C355.27 373.81 363.26 369.41 373.13 359.68C387.79 345.42 395.92 326.09 394.05 309.57C392.19 292.24 382.06 278.38 365.93 270.65C359.4 267.45 356.33 266.92 347.4 266.78C338.21 266.78 335.54 267.45 327.54 271.18C322.61 273.45 314.22 278.51 309.15 282.24C304.09 285.97 299.69 288.77 299.42 288.51C299.29 288.24 295.96 283.98 292.09 278.91C282.36 265.85 272.63 258.39 260.64 254.79C252.64 252.39 238.51 252.25 231.98 254.65C203.19 264.92 192 300.77 207.59 332.49Z" id="d52UCNKI61"></path><path d="M486.68 291.44C482.28 302.77 475.75 316.9 472.42 322.76C464.82 336.09 450.3 355.41 441.23 364.08C440.77 364.52 438.46 366.74 434.3 370.74C434.78 367.14 435.05 365.14 435.1 364.74C435.5 361.41 436.84 347.68 438.03 334.09C439.23 320.49 440.97 303.3 441.9 295.7C442.01 294.79 442.54 290.21 443.5 281.98C441.5 280.94 440.39 280.36 440.17 280.24C429.64 274.91 419.51 277.04 415.24 285.57C413.11 290.11 412.58 295.04 411.91 321.43C411.25 347.15 410.71 353.68 408.31 362.08C406.71 367.54 405.38 375.14 405.38 378.87C405.38 384.47 405.91 386.2 409.11 389.13C417.64 397.26 430.04 391.13 454.03 366.88C484.28 336.49 508.41 298.1 508.54 280.11C508.55 279.67 508.59 277.5 508.67 273.58C504.92 272.14 502.83 271.34 502.41 271.18C498.94 269.98 495.88 269.31 495.48 269.85C495.21 270.38 491.21 280.11 486.68 291.44Z" id="b119o2LOl9"></path><path d="M503.61 354.88C503.74 383.54 527.6 398.73 553.46 386.6C563.45 381.8 578.91 368.21 582.78 360.61C587.31 351.68 581.45 352.62 571.05 362.48C563.32 369.81 550.92 377.81 544.79 379.54C534.66 382.34 529.6 377.41 528.4 363.41C528.35 362.91 528.13 360.43 527.73 355.95C533.33 353.71 536.44 352.46 537.06 352.22C573.05 338.09 599.44 302.63 588.91 282.51C583.71 272.51 569.05 268.78 555.72 273.98C528.93 284.51 503.61 323.83 503.61 354.88ZM552.39 331.02C546.26 336.09 534.8 343.42 532.93 343.42C528.53 343.42 540.26 319.69 549.59 309.43C556.39 301.97 567.98 294.1 572.25 294.1C574.38 294.1 574.38 294.64 572.52 301.04C569.85 310.1 560.39 324.23 552.39 331.02Z" id="dQ8XbGMGE"></path></defs><g><g><g><use xlink:href="#b3aOUsBkrI" opacity="1" fill="#ffffff" fill-opacity="1"></use><g><use xlink:href="#b3aOUsBkrI" opacity="1" fill-opacity="0" stroke="#000000" stroke-width="1" stroke-opacity="0"></use></g></g><g><use xlink:href="#cnvzqOGEs" opacity="1" fill="#ffffff" fill-opacity="1"></use><g><use xlink:href="#cnvzqOGEs" opacity="1" fill-opacity="0" stroke="#000000" stroke-width="1" stroke-opacity="0"></use></g></g><g><use xlink:href="#c3UBAVxRse" opacity="1" fill="#ffffff" fill-opacity="1"></use><g><use xlink:href="#c3UBAVxRse" opacity="1" fill-opacity="0" stroke="#000000" stroke-width="1" stroke-opacity="0"></use></g></g><g><use xlink:href="#c8U1xgNxG" opacity="1" fill="#ffffff" fill-opacity="1"></use><g><use xlink:href="#c8U1xgNxG" opacity="1" fill-opacity="0" stroke="#000000" stroke-width="1" stroke-opacity="0"></use></g></g><g><use xlink:href="#j1nxGHreDQ" opacity="1" fill="#ffffff" fill-opacity="1"></use><g><use xlink:href="#j1nxGHreDQ" opacity="1" fill-opacity="0" stroke="#000000" stroke-width="1" stroke-opacity="0"></use></g></g><g><use xlink:href="#c1FBlfjM1N" opacity="1" fill="#ffffff" fill-opacity="1"></use><g><use xlink:href="#c1FBlfjM1N" opacity="1" fill-opacity="0" stroke="#000000" stroke-width="1" stroke-opacity="0"></use></g></g><g><use xlink:href="#b49AUYhwr" opacity="1" fill="#ffffff" fill-opacity="1"></use><g><use xlink:href="#b49AUYhwr" opacity="1" fill-opacity="0" stroke="#000000" stroke-width="1" stroke-opacity="0"></use></g></g><g><use xlink:href="#d52UCNKI61" opacity="1" fill="#ffffff" fill-opacity="1"></use><g><use xlink:href="#d52UCNKI61" opacity="1" fill-opacity="0" stroke="#000000" stroke-width="1" stroke-opacity="0"></use></g></g><g><use xlink:href="#b119o2LOl9" opacity="1" fill="#ffffff" fill-opacity="1"></use><g><use xlink:href="#b119o2LOl9" opacity="1" fill-opacity="0" stroke="#000000" stroke-width="1" stroke-opacity="0"></use></g></g><g><use xlink:href="#dQ8XbGMGE" opacity="1" fill="#ffffff" fill-opacity="1"></use><g><use xlink:href="#dQ8XbGMGE" opacity="1" fill-opacity="0" stroke="#000000" stroke-width="1" stroke-opacity="0"></use></g></g></g></g></svg>