<?xml version="1.0" encoding="utf-8"?>
<svg viewBox="352.126 80.407 450.092 316.082" xmlns="http://www.w3.org/2000/svg">
  <g transform="matrix(0.1, 0, 0, -0.1, 257.733673, 570.046143)" fill="#000000" stroke="none">
    <path d="M1669 4851 c-208 -39 -430 -221 -563 -462 -109 -198 -154 -461 -112 -656 48 -226 249 -362 454 -309 103 26 160 62 257 160 100 101 155 187 186 289 20 65 22 67 54 67 43 0 59 20 50 62 -13 58 -33 85 -75 102 -53 21 -97 20 -197 -4 -69 -16 -278 -92 -291 -105 -2 -2 4 -17 14 -34 34 -58 101 -73 231 -50 35 6 67 9 70 5 11 -10 -38 -130 -82 -201 -85 -137 -190 -215 -272 -202 -77 13 -143 118 -170 276 -46 260 96 629 331 861 106 105 171 143 250 148 60 4 64 3 89 -28 51 -60 27 -140 -61 -201 -22 -16 -23 -17 -7 -57 17 -43 42 -64 86 -75 30 -8 49 13 99 113 45 89 52 171 18 219 -39 58 -103 84 -216 87 -53 2 -118 -1 -143 -5z" style="fill: rgb(255, 255, 255);"/>
    <path d="M2250 4298 c-59 -126 -115 -279 -170 -463 -50 -166 -60 -250 -36 -288 16 -24 80 -57 109 -57 8 0 27 42 46 103 77 238 167 380 290 458 l44 29 20 -33 c45 -76 116 -128 143 -106 32 26 39 57 42 169 1 63 3 142 5 175 2 59 2 60 -27 63 -51 6 -73 -7 -127 -75 -105 -134 -203 -233 -230 -233 -15 0 27 98 82 193 l52 90 -22 18 c-26 21 -123 59 -152 59 -16 0 -31 -22 -69 -102z" style="fill: rgb(255, 255, 255);"/>
    <path d="M4014 4386 c-229 -57 -405 -311 -392 -566 5 -103 28 -160 93 -229 90 -96 181 -116 284 -61 67 36 175 130 197 171 14 28 14 29 -9 29 -12 0 -69 -27 -124 -61 -108 -65 -170 -82 -199 -58 -51 42 -67 151 -38 263 20 79 93 228 141 287 58 71 128 119 173 119 89 0 79 -78 -27 -209 -27 -33 -27 -33 -8 -48 92 -66 194 25 195 174 0 128 -51 184 -180 197 -31 3 -77 0 -106 -8z" style="fill: rgb(255, 255, 255);"/>
    <path d="M4748 4377 c-136 -51 -257 -172 -342 -343 -49 -100 -69 -177 -70 -269 -1 -68 3 -88 27 -137 72 -147 244 -181 397 -79 56 38 148 128 166 163 34 66 1 64 -79 -5 -139 -120 -221 -157 -279 -126 -27 15 -48 69 -48 126 l0 48 73 29 c222 89 397 281 397 435 0 67 -13 94 -61 133 -44 35 -123 46 -181 25z m109 -191 c-16 -102 -126 -240 -246 -310 -35 -20 -66 -35 -68 -32 -7 7 42 122 78 182 40 66 120 143 181 173 57 28 62 27 55 -13z" style="fill: rgb(255, 255, 255);"/>
    <path d="M3152 4336 c-96 -46 -211 -174 -280 -312 -56 -111 -76 -190 -77 -294 0 -86 3 -99 28 -143 38 -64 66 -81 122 -75 60 7 132 63 210 164 33 42 67 86 76 98 16 19 16 14 12 -91 -7 -131 3 -158 62 -169 49 -9 138 14 130 33 -3 9 -11 58 -17 109 -16 127 -2 206 56 322 40 80 86 206 86 237 0 14 -39 32 -94 45 l-36 8 -70 -137 c-118 -233 -246 -418 -328 -475 -73 -50 -94 -24 -68 86 43 186 185 367 354 452 28 14 52 32 52 40 0 19 -41 76 -70 98 -42 31 -88 32 -148 4z" style="fill: rgb(255, 255, 255);"/>
    <path d="M2399 3454 c-36 -91 -145 -436 -174 -548 -80 -316 -109 -524 -102 -748 2 -84 9 -170 16 -191 16 -49 82 -114 132 -129 22 -6 41 -9 44 -6 3 3 1 29 -5 58 -18 95 -12 397 10 542 44 281 126 551 254 841 31 70 54 132 50 138 -11 19 -110 58 -163 65 -49 6 -51 6 -62 -22z" style="fill: rgb(255, 255, 255);"/>
    <path d="M1523 3160 c-112 -64 -168 -210 -129 -335 12 -40 12 -40 -31 -89 -56 -63 -93 -125 -105 -178 -26 -119 71 -248 187 -248 52 0 84 20 157 100 57 61 67 68 79 54 7 -8 26 -22 43 -31 28 -15 31 -14 48 7 34 42 52 160 25 160 -8 0 -18 -9 -23 -20 -9 -18 -10 -18 -31 -2 -21 16 -22 19 -8 46 44 85 53 178 21 221 -13 18 -16 14 -44 -41 -30 -60 -77 -124 -91 -124 -8 0 -79 94 -87 115 -4 9 17 40 51 77 83 92 115 151 115 216 0 101 -74 131 -177 72z m85 -54 c4 -36 -47 -141 -87 -180 -17 -16 -33 -27 -37 -24 -11 12 -5 94 10 130 21 50 75 110 95 106 9 -2 17 -15 19 -32z m-94 -470 l48 -59 -39 -39 c-52 -54 -97 -80 -130 -76 -25 3 -28 7 -31 47 -2 31 4 58 23 96 31 65 65 109 75 98 4 -4 28 -34 54 -67z" style="fill: rgb(255, 255, 255);"/>
    <path d="M2719 2946 c-216 -77 -300 -346 -183 -584 45 -93 149 -200 305 -315 152 -112 229 -208 229 -287 0 -16 1 -30 3 -30 1 0 31 27 65 60 79 75 171 130 309 184 197 78 257 111 331 184 110 107 171 252 157 376 -14 130 -90 234 -211 292 -49 24 -72 28 -139 29 -69 0 -89 -5 -149 -33 -37 -17 -100 -55 -138 -83 -38 -28 -71 -49 -73 -47 -1 2 -26 34 -55 72 -73 98 -146 154 -236 181 -60 18 -166 19 -215 1z" style="fill: rgb(255, 0, 0);"/>
    <path d="M4696 2832 c-2 -4 -32 -77 -66 -162 -33 -85 -82 -191 -107 -235 -57 -100 -166 -245 -234 -310 l-52 -50 6 45 c3 25 13 128 22 230 9 102 22 231 29 288 l12 103 -25 13 c-79 40 -155 24 -187 -40 -16 -34 -20 -71 -25 -269 -5 -193 -9 -242 -27 -305 -12 -41 -22 -98 -22 -126 0 -42 4 -55 28 -77 64 -61 157 -15 337 167 227 228 408 516 409 651 l1 49 -47 18 c-26 9 -49 14 -52 10z" style="fill: rgb(255, 255, 255);"/>
    <path d="M5148 2801 c-201 -79 -391 -374 -391 -607 1 -215 180 -329 374 -238 75 36 191 138 220 195 34 67 -10 60 -88 -14 -58 -55 -151 -115 -197 -128 -76 -21 -114 16 -123 121 l-5 56 70 28 c270 106 468 372 389 523 -39 75 -149 103 -249 64z m126 -203 c-20 -68 -91 -174 -151 -225 -46 -38 -132 -93 -146 -93 -33 0 55 178 125 255 51 56 138 115 170 115 16 0 16 -4 2 -52z" style="fill: rgb(255, 255, 255);"/>
  </g>
</svg>